<svg width="319" height="40" viewBox="0 0 319 40" fill="none" xmlns="http://www.w3.org/2000/svg">
<path d="M18.6946 1.23242C9.27658 1.23242 0.5 8.14288 0.5 20.0685C0.5 31.9942 8.98499 38.6422 18.403 38.6422C27.8211 38.6422 36.4519 31.6151 36.4519 19.8061C36.4519 7.99709 28.0835 1.23242 18.6655 1.23242H18.6946ZM19.1028 35.3474C12.6006 35.3474 7.81867 28.5827 7.81867 18.7564C7.81867 10.009 11.93 4.55644 17.9074 4.55644C24.4096 4.55644 29.3082 11.2045 29.3082 21.1474C29.3082 29.8948 25.0511 35.3474 19.1028 35.3474Z" fill="#3D3935"/>
<path d="M72.8423 1.90013V26.3054L46.6875 0.821289V37.9687H50.5364V13.5342L76.5454 39.0184V1.87098H72.8423V1.90013Z" fill="#3D3935"/>
<path d="M96.8643 34.4087V20.7336H108.265V17.4096H96.8643V5.33811H110.802V1.89746H90.5078V37.9952H111.356V34.4087H96.8934H96.8643Z" fill="#3D3935"/>
<path d="M161.633 22.344V31.6454C159.912 33.2491 157.638 34.0364 154.868 34.0364C148.512 34.0364 142.126 28.059 142.126 17.8536C142.126 9.74769 146.762 4.58671 152.74 4.58671C157.376 4.58671 159.912 7.64831 160.029 12.1387L167.202 11.2056C166.677 4.96577 161.225 1.2627 153.673 1.2627C144.925 1.2627 135.77 7.76494 135.77 20.3612C135.77 31.9078 143.205 38.6725 151.427 38.6725C156.472 38.6725 159.796 36.2815 161.779 32.8409V38.031H168.018V21.5859L161.662 22.3731L161.633 22.344Z" fill="#3D3935"/>
<path d="M197.872 21.2876C201.721 19.5673 204.52 16.389 204.52 11.7237C204.52 4.55085 198.688 1.89746 191.515 1.89746H181.164V37.9952H187.521V22.8621H191.778L200.817 37.9952H208.252L197.901 21.2876H197.872ZM189.649 19.8005H187.521V5.19233H190.436C194.81 5.19233 197.726 7.17507 197.726 12.2194C197.726 16.7389 194.927 19.7714 189.62 19.7714L189.649 19.8005Z" fill="#3D3935"/>
<path d="M232.51 1.23145C223.208 1.23145 214.461 8.1419 214.461 20.0676C214.461 31.9932 222.829 38.6412 232.247 38.6412C241.665 38.6412 250.442 31.6141 250.442 19.8051C250.442 7.99611 242.074 1.23145 232.539 1.23145H232.51ZM233.035 35.3464C226.532 35.3464 221.634 28.5817 221.634 18.7554C221.634 10.008 225.891 4.55546 231.839 4.55546C238.341 4.55546 243.24 11.2035 243.24 21.1464C243.24 29.8938 238.983 35.3464 233.035 35.3464Z" fill="#3D3935"/>
<path d="M284.384 1.89746L273.625 26.4486L263.274 1.89746H255.984L272.05 39.0448L288.496 1.89746H284.384Z" fill="#3D3935"/>
<path d="M304.155 34.4087V20.7336H315.439V17.4096H304.155V5.33811H317.947V1.89746H297.652V37.9952H318.501V34.4087H304.155Z" fill="#3D3935"/>
</svg>
