<svg width="41" height="41" viewBox="0 0 41 41" fill="none" xmlns="http://www.w3.org/2000/svg">
<circle opacity="0.1" cx="20.5" cy="20.8203" r="20" fill="#111111"/>
<g clip-path="url(#clip0_820_9622)">
<path d="M11.5 24.6261V18.019C11.5121 17.9715 11.5321 17.9243 11.5357 17.8761C11.5504 17.6586 11.5629 17.4408 11.5721 17.2229C11.5975 16.6111 11.7343 16.0236 11.9454 15.45C12.2475 14.6286 12.7607 13.96 13.4429 13.4275C14.2371 12.8068 15.1714 12.5186 16.1589 12.4204C16.7811 12.3586 17.41 12.3633 18.0361 12.3429C18.2561 12.3358 18.4761 12.344 18.6961 12.34C18.75 12.339 18.8032 12.3172 18.8568 12.3047H22.1425C22.1782 12.3168 22.2136 12.3393 22.2496 12.34C22.8479 12.354 23.4464 12.3554 24.0443 12.3808C24.4482 12.3979 24.8518 12.4397 25.2536 12.4861C25.82 12.5515 26.3568 12.734 26.8596 12.9915C27.3996 13.2679 27.8686 13.6429 28.2629 14.1154C28.6164 14.5386 28.8804 15.005 29.0718 15.5175C29.3643 16.3015 29.4582 17.1172 29.4646 17.9475C29.465 18.019 29.4875 18.0904 29.5 18.1618V24.519C29.4879 24.5429 29.4664 24.5661 29.465 24.5904C29.4507 24.8558 29.4479 25.1218 29.4254 25.3861C29.3979 25.7068 29.3829 26.0325 29.3118 26.3443C29.0789 27.3654 28.6454 28.2758 27.8404 28.9886C27.3593 29.4147 26.8268 29.7365 26.2243 29.945C25.435 30.2183 24.6164 30.3047 23.7857 30.3047C23.7143 30.3047 23.6429 30.3275 23.5714 30.34H17.4286C17.3929 30.3279 17.3579 30.3072 17.3214 30.3043C16.8171 30.2668 16.3111 30.245 15.8086 30.1925C15.2782 30.1372 14.7725 29.9754 14.2904 29.75C13.6996 29.474 13.1957 29.0854 12.7629 28.5918C12.4411 28.2247 12.1918 27.8183 12.0079 27.3754C11.6643 26.5493 11.5318 25.6793 11.5357 24.7865C11.5357 24.7329 11.5129 24.6793 11.5004 24.6258L11.5 24.6261ZM23.5207 28.6986C23.5211 28.6929 23.5218 28.6872 23.5221 28.6818C23.8979 28.6518 24.2736 28.6211 24.6493 28.5922C25.1982 28.5497 25.7154 28.4025 26.1968 28.1333C26.7254 27.8375 27.1196 27.409 27.3889 26.8736C27.63 26.3947 27.7364 25.8711 27.7818 25.3415C27.8268 24.8183 27.855 24.2915 27.8543 23.7665C27.8525 22.0011 27.8329 20.2361 27.8232 18.4708C27.82 17.8754 27.7989 17.2833 27.6825 16.6961C27.5543 16.0497 27.2896 15.4754 26.8243 15.0054C26.4154 14.5922 25.9111 14.3461 25.3536 14.195C24.6707 14.01 23.9671 13.9972 23.2721 13.9918C21.3168 13.9765 19.3611 14.0097 17.4054 14.0158C16.8621 14.0175 16.3232 14.0458 15.7921 14.1622C14.9929 14.3379 14.3218 14.7158 13.8425 15.4011C13.4446 15.9697 13.2729 16.6158 13.22 17.289C13.1654 17.9843 13.1568 18.6836 13.1443 19.3815C13.1325 20.03 13.1343 20.679 13.1432 21.3275C13.1614 22.6086 13.1857 23.8893 13.2146 25.17C13.2271 25.7236 13.3414 26.2554 13.565 26.7672C13.8504 27.4208 14.3246 27.8943 14.9421 28.2179C15.4268 28.4718 15.9643 28.58 16.5068 28.6222C17.0779 28.6665 17.6518 28.6922 18.2246 28.695C19.9896 28.704 21.755 28.6983 23.5204 28.6983L23.5207 28.6986Z" fill="#111111"/>
<path fill-rule="evenodd" clip-rule="evenodd" d="M15.8597 21.3499C15.8501 18.8063 17.9212 16.5974 20.709 16.707C23.0701 16.7999 25.1987 18.7342 25.1362 21.4628C25.0797 23.9299 23.1158 26.0088 20.424 25.9795C17.9219 25.9528 15.8733 23.9542 15.8594 21.3495L15.8597 21.3499ZM23.4669 21.3435C23.4908 19.686 22.1219 18.3428 20.4947 18.3581C18.8015 18.3738 17.5197 19.6745 17.5151 21.3453C17.5108 22.9574 18.7654 24.2228 20.3287 24.3142C22.1212 24.4195 23.5208 22.911 23.4672 21.3435H23.4669Z" fill="#111111"/>
<path fill-rule="evenodd" clip-rule="evenodd" d="M24.2166 16.5369C24.147 15.983 24.7273 15.4076 25.3473 15.4387C25.8706 15.4651 26.4166 15.9362 26.3998 16.5705C26.3856 17.1076 25.9031 17.6487 25.277 17.6337C24.7423 17.6208 24.1648 17.1466 24.217 16.5369H24.2166Z" fill="#111111"/>
</g>
<defs>
<clipPath id="clip0_820_9622">
<rect width="18" height="18.0357" fill="white" transform="translate(11.5 12.3047)"/>
</clipPath>
</defs>
</svg>
