<svg width="41" height="41" viewBox="0 0 41 41" fill="none" xmlns="http://www.w3.org/2000/svg">
<circle opacity="0.1" cx="20.5" cy="20.8203" r="20" fill="#111111"/>
<path d="M29.1251 16.788C28.9177 16.0131 28.3087 15.4041 27.5337 15.1967C26.1291 14.8203 20.5 14.8203 20.5 14.8203C20.5 14.8203 14.8709 14.8203 13.4677 15.1967C12.6928 15.4041 12.0838 16.0131 11.8764 16.788C11.5 18.1912 11.5 21.1206 11.5 21.1206C11.5 21.1206 11.5 24.05 11.8764 25.4532C12.0838 26.2281 12.6928 26.8371 13.4677 27.0445C14.8709 27.4209 20.5 27.4209 20.5 27.4209C20.5 27.4209 26.1291 27.4209 27.5323 27.0445C28.3072 26.8371 28.9162 26.2281 29.1236 25.4532C29.5 24.05 29.5 21.1206 29.5 21.1206C29.5 21.1206 29.5 18.1912 29.1236 16.788H29.1251ZM18.6997 23.8203V18.4209L23.376 21.1206L18.6997 23.8203Z" fill="#111111"/>
</svg>
