<svg width="24" height="24" viewBox="0 0 24 24" fill="none" xmlns="http://www.w3.org/2000/svg">
<path d="M11.8665 11.8161C12.4621 11.8161 12.9689 11.6078 13.3868 11.1911C13.8049 10.7744 14.0139 10.2734 14.0139 9.68824C14.0139 9.10305 13.8017 8.60507 13.3774 8.19429C12.9532 7.78374 12.4434 7.57846 11.8478 7.57846C11.2521 7.57846 10.7454 7.78681 10.3275 8.20352C9.90944 8.62044 9.70039 9.1215 9.70039 9.70669C9.70039 10.2919 9.91257 10.7898 10.3369 11.2003C10.761 11.6109 11.2709 11.8161 11.8665 11.8161ZM11.8571 24C8.57121 21.2553 6.10681 18.7007 4.46395 16.3362C2.82132 13.9717 2 11.7875 2 9.78346C2 7.09344 2.91746 4.79036 4.75237 2.87421C6.5875 0.958071 8.95017 0 11.8404 0C14.7306 0 17.0988 0.958071 18.9452 2.87421C20.7912 4.79036 21.7143 7.09344 21.7143 9.78346C21.7143 11.7875 20.8987 13.9669 19.2674 16.3217C17.6362 18.6763 15.1661 21.2357 11.8571 24Z" fill="white"/>
</svg>
