<svg width="119" height="60" viewBox="0 0 119 60" fill="none" xmlns="http://www.w3.org/2000/svg">
<g clip-path="url(#clip0_1028_1421)">
<path d="M118.991 14H-0.00390625V17.0633H118.991V14Z" fill="white"/>
<path d="M118.995 18.6797V21.743H70.3018V20.4204H48.6703V21.743H0.0117188V18.6797H118.995Z" fill="white"/>
<path d="M118.995 23.3594V26.4227H70.3018V25.0658H48.6703V26.4227H0.0117188V23.3594H118.995Z" fill="white"/>
<path d="M118.995 28.0469V31.1102H70.3018V29.6164H48.6703V31.1102H0.0117188V28.0469H118.995Z" fill="white"/>
<path d="M118.995 32.7266V35.7899H70.3018V34.0174H48.6703V35.7899H0.0117188V32.7266H118.995Z" fill="white"/>
<path d="M118.995 37.4062V40.4696H70.3018V38.6947H48.6703V40.4696H0.0117188V37.4062H118.995Z" fill="white"/>
<path d="M118.995 42.0859V45.1493H70.3018V43.235H48.6703V45.1493H0.0117188V42.0859H118.995Z" fill="white"/>
</g>
<defs>
<clipPath id="clip0_1028_1421">
<rect width="119" height="31" fill="white" transform="translate(0 14)"/>
</clipPath>
</defs>
</svg>
