<svg xmlns="http://www.w3.org/2000/svg" class="block" fill="#FF0000" height="24" width="24" viewBox="0 0 24 24" style="overflow: visible;"><g id="heart 1"><path d="M15.9998 28.6668C23.1665 23.7821 30.3332 17.7824 30.3332 10.558C30.3332 8.70849 29.6339 6.86006 28.2344 5.44923C26.8348 4.03943 25.0012 3.3335 23.1665 3.3335C21.3329 3.3335 19.4982 4.03943 18.0997 5.44923L15.9998 7.566L13.901 5.44923C12.5015 4.03943 10.6678 3.3335 8.83317 3.3335C6.99953 3.3335 5.16486 4.03943 3.76634 5.44923C2.36679 6.86006 1.6665 8.70849 1.6665 10.558C1.6665 17.7824 8.83317 23.7821 15.9998 28.6668Z" fill="#FF0000" fill-opacity="1" id="Vector" stroke="var(--palette-icon-primary-inverse)" stroke-width="2" transform="translate(1.25, 2.5) scale(0.75, 0.75) translate(-1.6665, -3.3335)"/></g></svg>